<svg width="41" height="40" viewBox="0 0 41 40" fill="none" xmlns="http://www.w3.org/2000/svg">
<path fill-rule="evenodd" clip-rule="evenodd" d="M20.5 3.66553C11.4858 3.66553 4.18469 10.9666 4.18469 19.9808C4.18469 27.2003 8.85494 33.2982 15.3403 35.46C16.156 35.6027 16.4619 35.1133 16.4619 34.685C16.4619 34.2975 16.4416 33.0127 16.4416 31.6463C12.3423 32.4008 11.2818 30.6469 10.9555 29.7292C10.772 29.2601 9.97662 27.8122 9.28322 27.4247C8.71219 27.1188 7.89642 26.3642 9.26283 26.3438C10.5477 26.3234 11.4654 27.5266 11.7713 28.0161C13.2397 30.4838 15.585 29.7904 16.5231 29.3621C16.6659 28.3016 17.0942 27.5878 17.5632 27.1799C13.9331 26.7721 10.1398 25.3649 10.1398 19.1243C10.1398 17.35 10.772 15.8816 11.8121 14.7395C11.6489 14.3316 11.0779 12.6593 11.9752 10.416C11.9752 10.416 13.3417 9.9877 16.4619 12.0883C17.7672 11.7212 19.154 11.5377 20.5408 11.5377C21.9276 11.5377 23.3144 11.7212 24.6196 12.0883C27.7399 9.96731 29.1063 10.416 29.1063 10.416C30.0036 12.6593 29.4326 14.3316 29.2695 14.7395C30.3096 15.8816 30.9418 17.3296 30.9418 19.1243C30.9418 25.3853 27.1281 26.7721 23.4979 27.1799C24.0893 27.6898 24.5992 28.6687 24.5992 30.1983C24.5992 32.3804 24.5788 34.1343 24.5788 34.685C24.5788 35.1133 24.8847 35.6231 25.7005 35.46C28.9394 34.3665 31.7538 32.2849 33.7477 29.5082C35.7415 26.7314 36.8144 23.3993 36.8153 19.9808C36.8153 10.9666 29.5142 3.66553 20.5 3.66553Z" fill="white"/>
</svg>
