<svg width="317" height="347" viewBox="0 0 317 347" fill="none" xmlns="http://www.w3.org/2000/svg">
<circle cx="158.5" cy="188" r="158.5" fill="url(#paint0_radial_1_36)"/>
<path d="M41.9746 33.6801L36 113.135C36 113.135 117.965 308.219 109.999 308.219L129.211 316.742L59.9764 113.098L42.0136 33.6429L41.9746 33.6801Z" fill="#03899E"/>
<path d="M156.468 310.824L167.793 286.299L103.869 73.389L41.9752 33.68L87.8974 118.829L156.468 310.824Z" fill="#0E3D5B"/>
<path d="M83.5629 98.3979L41.9752 33.68L59.938 113.135L130.891 325.822L156.468 310.824L83.5629 98.3979Z" fill="#06768D"/>
<path d="M129.602 78.3388L203.484 0L190.48 98.3236L129.602 78.3388Z" fill="#0CE4E7"/>
<path d="M140.575 279.117C144.558 280.084 181.499 303.865 181.499 303.865L189.387 93.597L129.602 78.3386L140.575 279.117Z" fill="#08637D"/>
<path d="M149.713 263.636C149.713 263.636 146.16 108.372 156.469 109.786C166.778 111.201 173.143 276.214 173.143 276.214L149.713 263.598V263.636Z" fill="#06768D"/>
<path d="M206.452 303.864L232.42 98.3228L189.388 93.5964L181.5 303.864H206.452Z" fill="#102A4B"/>
<path d="M223.008 286.076L206.451 303.865L232.419 98.3237L252.373 87.3451L223.008 286.076Z" fill="#08637D"/>
<path d="M232.42 98.3236L203.485 0L189.388 93.5972L232.42 98.3236Z" fill="#08637D"/>
<path d="M252.373 87.345L203.483 0L232.419 98.3236L252.373 87.345Z" fill="#0E3D5B"/>
<path d="M237.808 189.427L295.523 162.557L260.691 214.25L237.808 189.427Z" fill="#08637D"/>
<path d="M261.549 211.347L196.454 326.306C196.454 326.306 185.989 304.795 184.388 303.344L237.846 189.39L261.589 211.31L261.549 211.347Z" fill="#0B506C"/>
<path d="M261.551 211.347L196.455 326.306C193.253 319.867 188.723 309.856 187.708 308.963L242.494 193.706L261.551 211.309V211.347Z" fill="#102A4B"/>
<path d="M208.169 331.963L280.449 223.666L261.549 211.347L196.415 326.344L208.169 331.963Z" fill="#0B506C"/>
<path d="M221.172 325.784L208.169 331.962L280.45 223.665L293.063 222.064L221.172 325.784Z" fill="#08637D"/>
<path d="M280.45 223.665L295.523 162.557L261.55 211.347L280.45 223.665Z" fill="#03899E"/>
<path d="M293.062 222.065L295.522 162.557L280.449 223.665L293.062 222.065Z" fill="#06768D"/>
<path d="M40.7239 256.377L37.2485 199.14L72.0416 243.315L40.7239 256.377Z" fill="#0E3D5B"/>
<path d="M122.455 326.342C124.368 325.338 151.664 329.431 151.664 329.431L69.6988 241.826L40.7241 256.414L122.455 326.342Z" fill="#03899E"/>
<path d="M161.192 320.761L88.0129 228.801L69.6987 241.826L151.664 329.432L161.192 320.761Z" fill="#0B506C"/>
<path d="M160.294 307.847L161.192 320.76L88.0137 228.801L91.2158 217.413L160.294 307.847Z" fill="#0E3D5B"/>
<path d="M88.0128 228.801C58.1009 212.165 69.6596 218.864 37.2485 199.14L72.0416 243.352L88.0519 228.801H88.0128Z" fill="#08637D"/>
<path d="M91.2149 217.413L37.2485 199.14L88.0128 228.801L91.2149 217.413Z" fill="#03899E"/>
<path d="M131.593 213.543L126.282 285.518H152.875L173.141 263.635V233.192L153.265 222.251L131.593 213.543Z" fill="#03899E"/>
<path d="M113.279 250.312L131.593 213.543L126.283 285.518L113.279 250.312Z" fill="#0B506C"/>
<path d="M147.252 328.799L126.282 285.518L131.593 213.543L155.725 285.518L163.106 338.959L147.252 328.799Z" fill="#08637D"/>
<path d="M187.668 322.622L173.141 263.635L154.905 283.322L163.106 338.959L187.668 322.622Z" fill="#0B506C"/>
<path d="M190.987 306.21L187.668 322.622L173.141 263.635V233.193L190.987 306.21Z" fill="#102A4B"/>
<path d="M103.869 73.3892L83.5629 98.398L41.9752 33.6801L103.869 73.3892Z" fill="#03899E"/>
<path d="M58.883 108.408L101.876 221.246L72.0427 103.049L58.883 108.408Z" fill="#0CE4E7"/>
<path d="M213.987 240.226L238.432 95.0484L232.418 98.3234L213.987 240.226Z" fill="#0CE4E7"/>
<path d="M126.282 285.517L129.172 243.315L129.601 285.517L136.513 306.656L126.282 285.517Z" fill="#0CE4E7"/>
<path d="M40.7243 256.378L141.433 327.981L122.455 326.343L40.7243 256.378Z" fill="#0CE4E7"/>
<path d="M280.449 223.666L250.108 269.106L287.986 222.735L280.449 223.666Z" fill="#03899E"/>
<path d="M36 113.135L58.883 108.409L41.9746 33.6801L36 113.135Z" fill="#0B506C"/>
<path d="M198.837 93.5971C190.442 94.1553 189.973 94.6019 189.387 102.603C188.801 94.6019 188.333 94.1553 179.937 93.5971C188.333 93.0389 188.801 92.5923 189.387 84.5909C189.973 92.5923 190.442 93.0389 198.837 93.5971Z" fill="#B0E8EC"/>
<path d="M92.0357 78.3382C83.64 78.8964 83.1715 79.3431 82.5857 87.3444C82 79.3431 81.5314 78.8964 73.1357 78.3382C81.5314 77.78 82 77.3334 82.5857 69.332C83.1715 77.3334 83.64 77.78 92.0357 78.3382Z" fill="#B0E8EC"/>
<path d="M164.59 285.519C155.921 286.077 155.453 286.561 154.867 294.785C154.281 286.523 153.774 286.077 145.144 285.519C153.813 284.96 154.281 284.477 154.867 276.252C155.453 284.514 155.96 284.96 164.59 285.519Z" fill="#B0E8EC"/>
<path d="M78.4471 243.315C69.7781 243.873 69.3095 244.357 68.7238 252.582C68.1381 244.32 67.6304 243.873 59.0005 243.315C67.6695 242.757 68.1381 242.273 68.7238 234.048C69.3095 242.31 69.8172 242.757 78.4471 243.315Z" fill="#B0E8EC"/>
<path style="mix-blend-mode:color-dodge" d="M190.479 316.93C237.688 316.93 275.959 280.457 275.959 235.465C275.959 190.473 237.688 154 190.479 154C143.27 154 105 190.473 105 235.465C105 280.457 143.27 316.93 190.479 316.93Z" fill="url(#paint1_radial_1_36)"/>
<path style="mix-blend-mode:color-dodge" d="M227.07 118.048C217.62 162.148 191.027 194.191 167.676 189.651C144.324 185.11 133.078 145.662 142.528 101.599C151.978 57.4982 178.571 25.4556 201.922 29.9959C225.274 34.5362 236.52 73.9847 227.07 118.048Z" fill="url(#paint2_radial_1_36)"/>
<defs>
<radialGradient id="paint0_radial_1_36" cx="0" cy="0" r="1" gradientUnits="userSpaceOnUse" gradientTransform="translate(158.5 188) rotate(90) scale(158.5)">
<stop offset="0.012704" stop-color="#B2C5CB"/>
<stop offset="0.205419" stop-color="#5E95A7"/>
<stop offset="0.48147" stop-color="#6B9DAC" stop-opacity="0.888655"/>
<stop offset="1" stop-color="#80A0AA" stop-opacity="0"/>
</radialGradient>
<radialGradient id="paint1_radial_1_36" cx="0" cy="0" r="1" gradientUnits="userSpaceOnUse" gradientTransform="translate(190.479 235.465) scale(85.4794 81.4649)">
<stop stop-color="#025663"/>
<stop offset="1"/>
</radialGradient>
<radialGradient id="paint2_radial_1_36" cx="0" cy="0" r="1" gradientUnits="userSpaceOnUse" gradientTransform="translate(185.557 109.951) rotate(11.0307) scale(42.6609 81.6154)">
<stop stop-color="#025663"/>
<stop offset="1"/>
</radialGradient>
</defs>
</svg>
