<svg width="40" height="40" viewBox="0 0 40 40" fill="none" xmlns="http://www.w3.org/2000/svg">
<path d="M34.2621 7.05391V32.1027C34.2621 32.6754 34.0346 33.2246 33.6297 33.6296C33.2247 34.0346 32.6754 34.2621 32.1027 34.2621H7.05397C6.48127 34.2621 5.93202 34.0346 5.52706 33.6296C5.1221 33.2246 4.89459 32.6754 4.89459 32.1027V7.05391C4.89459 6.48121 5.1221 5.93196 5.52706 5.527C5.93202 5.12204 6.48127 4.89453 7.05397 4.89453H32.1027C32.6754 4.89453 33.2247 5.12204 33.6297 5.527C34.0346 5.93196 34.2621 6.48121 34.2621 7.05391V7.05391ZM13.5321 16.1233H9.21335V29.9433H13.5321V16.1233ZM13.9208 11.3727C13.9231 11.046 13.861 10.7221 13.7381 10.4194C13.6151 10.1167 13.4338 9.84119 13.2044 9.60858C12.975 9.37598 12.7021 9.19084 12.4011 9.06374C12.1002 8.93663 11.7771 8.87005 11.4505 8.86778H11.3727C10.7084 8.86778 10.0713 9.13169 9.60151 9.60145C9.13175 10.0712 8.86785 10.7083 8.86785 11.3727C8.86785 12.037 9.13175 12.6741 9.60151 13.1439C10.0713 13.6136 10.7084 13.8775 11.3727 13.8775V13.8775C11.6994 13.8856 12.0245 13.8292 12.3294 13.7115C12.6343 13.5939 12.913 13.4173 13.1496 13.1919C13.3863 12.9665 13.5762 12.6967 13.7085 12.3979C13.8408 12.0991 13.9129 11.7771 13.9208 11.4504V11.3727ZM29.9434 21.5476C29.9434 17.393 27.3003 15.7778 24.6745 15.7778C23.8147 15.7347 22.9587 15.9179 22.1919 16.3089C21.425 16.6999 20.774 17.2852 20.3039 18.0063H20.183V16.1233H16.1234V29.9433H20.4421V22.5928C20.3797 21.84 20.6168 21.0929 21.102 20.5139C21.5872 19.9349 22.2812 19.5708 23.0334 19.5006H23.1975C24.5708 19.5006 25.5901 20.3643 25.5901 22.541V29.9433H29.9088L29.9434 21.5476Z" fill="white"/>
</svg>
