<svg width="40" height="40" viewBox="0 0 40 40" fill="none" xmlns="http://www.w3.org/2000/svg">
<path d="M33.3964 12.9219C33.4162 13.2095 33.4163 13.4972 33.4163 13.7875C33.4163 22.6335 26.682 32.8356 14.3682 32.8356V32.8303C10.7306 32.8356 7.16861 31.7937 4.10638 29.8291C4.63531 29.8927 5.1669 29.9245 5.6998 29.9258C8.7143 29.9285 11.6426 28.917 14.0142 27.0545C11.1495 27.0001 8.63742 25.1323 7.75984 22.4055C8.76335 22.599 9.79735 22.5593 10.7823 22.2902C7.6591 21.6591 5.41214 18.9151 5.41214 15.7282C5.41214 15.6991 5.41214 15.6712 5.41214 15.6434C6.34274 16.1617 7.38469 16.4494 8.4505 16.4812C5.50891 14.5153 4.60217 10.602 6.37853 7.54243C9.77747 11.7248 14.7924 14.2674 20.1758 14.5365C19.6362 12.2113 20.3733 9.7748 22.1125 8.14029C24.8089 5.60567 29.0496 5.73558 31.5842 8.43061C33.0835 8.13499 34.5205 7.58485 35.8355 6.80537C35.3358 8.35504 34.2898 9.6714 32.8926 10.5079C34.2196 10.3515 35.5161 9.99618 36.737 9.454C35.8382 10.8008 34.7061 11.974 33.3964 12.9219Z" fill="white"/>
</svg>
