<svg width="31" height="31" viewBox="0 0 31 31" fill="none" xmlns="http://www.w3.org/2000/svg">
<path d="M15.11 30.22C6.78 30.22 0 23.44 0 15.11C0 6.78 6.78 0 15.11 0C23.44 0 30.22 6.78 30.22 15.11C30.22 23.44 23.44 30.22 15.11 30.22ZM15.11 1C7.33 1 1 7.33 1 15.11C1 22.89 7.33 29.22 15.11 29.22C22.89 29.22 29.22 22.89 29.22 15.11C29.22 7.33 22.89 1 15.11 1Z" fill="#FFA8FF"/>
<path d="M18.98 17.05C18.1 16.84 17.31 16.41 16.69 15.81C16.31 15.45 16.32 14.84 16.69 14.47C17.17 13.99 17.59 13.39 17.86 12.74C18.26 12.63 18.76 12.26 18.76 11.78C18.76 11.3 18.51 10.88 18.18 10.78C18.08 8.73 17.26 7 14.5 7C11.74 7 10.91 8.74 10.82 10.78C10.49 10.88 10.24 11.29 10.24 11.78C10.24 12.27 10.74 12.64 11.14 12.74C11.41 13.39 11.83 13.98 12.31 14.47C12.68 14.84 12.69 15.45 12.31 15.81C11.68 16.41 10.89 16.84 10.02 17.05C8.86 17.33 8 18.37 8 19.62V21.78C8 22.2 8.34 22.54 8.76 22.54H20.26C20.68 22.54 21.02 22.2 21.02 21.78V19.62C21.02 18.37 20.16 17.33 19 17.05H18.98Z" fill="#FFA8FF"/>
</svg>
