<svg width="414" height="357" viewBox="0 0 414 357" fill="none" xmlns="http://www.w3.org/2000/svg">
<path d="M245.261 282.159C249.04 281.979 253.538 291.334 256.777 300.149C257.857 300.329 258.937 300.329 259.837 300.509C260.196 300.509 260.376 300.509 260.736 300.509C262.356 300.689 264.155 300.689 265.775 300.689C266.135 294.572 267.934 288.276 275.492 301.049C276.572 301.049 277.831 301.049 278.911 301.049C279.811 301.049 280.89 301.049 281.79 301.049C282.51 301.049 283.23 301.049 283.77 301.049C285.389 301.049 286.829 300.869 288.448 300.689C289.888 300.509 291.327 300.509 292.587 300.329C293.127 300.329 293.847 300.149 294.386 300.149C297.805 299.79 301.224 299.25 304.464 298.53C305.363 298.35 306.443 298.17 307.343 297.991C307.883 297.811 308.422 297.811 308.962 297.631C311.481 297.091 313.821 296.551 316.34 295.832C319.579 294.932 322.638 293.853 325.697 292.953C326.237 292.773 326.777 292.593 327.137 292.413C333.435 290.255 339.373 287.736 344.772 285.037C344.952 284.857 345.312 284.857 345.492 284.677C350.71 282.159 355.569 279.28 360.067 276.402C360.247 276.222 360.607 276.042 360.787 276.042C363.126 274.603 365.286 272.983 367.445 271.364C367.625 271.184 367.985 271.004 368.165 270.825C370.144 269.385 371.944 267.766 373.743 266.327L373.923 266.147C377.882 262.729 381.301 259.31 384.54 255.892C384.72 255.712 384.9 255.353 385.26 255.173C388.319 251.754 391.018 248.336 393.537 244.738C393.717 244.558 393.717 244.378 393.897 244.378C394.797 243.119 395.697 241.68 396.417 240.42C390.118 236.462 380.041 229.446 378.602 224.409C377.522 220.091 392.638 221.35 405.414 223.149C405.594 222.969 405.594 222.609 405.774 222.43V222.25C407.213 218.831 408.293 215.593 409.193 212.355C409.733 210.736 410.093 209.296 410.453 207.857C410.453 207.677 410.632 207.317 410.632 207.137C410.992 205.698 411.352 204.259 411.532 203C417.111 174.934 410.992 178.352 384.36 185.369H384.18C382.381 185.908 380.581 186.268 378.602 186.808C376.622 187.348 374.643 187.707 372.844 188.247C372.664 188.247 372.484 188.247 372.304 188.427C358.268 192.205 346.031 195.803 334.695 198.142H334.515C328.936 188.067 314.001 184.829 314.001 184.829C333.615 189.686 343.152 178.352 343.152 178.352C329.116 170.616 315.98 180.151 315.98 180.151C325.877 167.738 323.538 153.705 323.538 153.705C311.661 157.303 306.083 167.738 303.564 176.193C303.384 176.013 303.204 175.834 302.844 175.654C302.304 175.114 301.764 174.754 301.224 174.394C300.685 174.035 300.325 173.675 299.785 173.315C299.785 173.315 299.785 173.315 299.605 173.135C298.705 168.817 296.546 164.32 292.227 160.362C293.127 159.282 293.847 158.383 294.926 157.303C305.723 145.609 322.818 148.308 326.057 148.848C327.497 153.705 331.276 157.663 335.234 160.541C340.633 164.679 346.571 166.838 346.571 166.838C344.052 158.742 338.654 153.705 335.234 151.006C334.155 150.107 333.075 149.387 332.535 149.027C343.152 152.626 351.43 149.567 351.43 149.567C351.07 149.387 350.71 149.207 350.53 149.027C350.71 149.027 350.71 149.027 350.71 149.027C336.134 141.291 326.417 147.228 326.417 147.228C312.021 143.99 301.404 148.848 297.086 151.366C301.404 145.609 310.582 134.995 310.582 134.995C326.957 141.291 342.792 131.756 342.792 131.756C342.432 131.576 342.072 131.576 341.713 131.397C341.893 131.217 342.073 131.217 342.073 131.217C328.037 125.46 317.24 129.238 312.921 131.397C319.399 123.661 334.335 113.046 334.335 113.046C350.71 124.38 379.502 118.443 379.502 118.443C379.142 118.263 378.782 118.083 378.602 117.903C378.782 117.903 378.782 117.903 378.782 117.903C366.545 110.527 349.09 109.268 341.353 109.268C378.062 102.791 384.72 74.186 384.72 74.186C384.36 74.366 384 74.366 383.64 74.5459C383.82 74.0061 384 73.6463 384 73.6463C353.229 84.6207 332.355 110.527 332.355 110.527C317.06 122.581 305.903 133.915 297.625 143.63C301.764 130.137 303.204 113.226 303.204 113.226C309.862 113.226 315.98 103.871 315.98 103.871C315.44 103.871 315.08 104.051 314.72 104.051C315.08 103.511 315.26 103.331 315.26 103.331C308.782 103.691 305.183 107.289 303.744 109.268C304.284 98.2936 297.625 91.8169 297.625 91.8169V91.9969C297.266 91.637 296.906 91.2772 296.906 91.2772C292.767 104.41 300.685 112.146 300.685 112.146C300.685 124.92 295.286 144.35 290.608 152.446C291.147 138.053 289.528 118.083 280.171 95.0553C280.171 95.0553 287.009 91.2772 284.489 80.4828C284.489 80.4828 284.309 80.6627 283.95 80.8426C283.95 80.4828 283.77 80.123 283.77 79.9431C283.77 79.9431 279.991 82.4618 278.551 87.859C278.011 81.0225 274.952 65.3706 260.376 54.936C258.937 53.8565 257.497 52.7771 255.698 51.8776C255.698 51.8776 256.238 73.1066 270.273 86.4197C270.094 86.2398 269.914 86.2398 269.914 86.0599C267.214 83.901 256.777 76.5248 242.022 81.0225C242.022 81.0225 243.641 83.0015 247.06 85.5202C252.459 89.6581 262.536 95.595 277.831 95.595C279.811 100.273 293.847 135.534 284.489 161.801C283.23 163.78 282.15 165.579 281.25 167.198C279.811 164.499 278.191 161.801 276.572 158.922C276.392 158.742 276.212 158.383 276.032 158.203C275.312 156.943 274.772 155.864 274.052 154.605C273.872 154.245 273.693 153.885 273.513 153.525C272.973 152.446 272.253 151.366 271.713 150.287C271.533 149.747 271.173 149.387 270.993 148.848C270.453 147.768 269.734 146.689 269.194 145.429C269.014 145.069 268.834 144.71 268.654 144.35C267.934 142.911 267.214 141.651 266.315 140.212C266.315 140.032 266.135 139.852 266.135 139.852C265.235 138.233 264.335 136.614 263.615 134.995C263.615 134.815 263.435 134.815 263.435 134.635C262.716 133.196 261.996 131.756 261.096 130.317C260.916 129.957 260.736 129.597 260.556 129.058C260.017 127.978 259.297 126.719 258.757 125.639C258.577 125.1 258.217 124.56 258.037 124.2C257.497 123.121 256.957 122.041 256.418 120.962C256.238 120.422 255.878 119.882 255.698 119.343C255.158 118.263 254.618 117.004 254.078 115.924C253.898 115.565 253.718 115.025 253.358 114.665C252.639 113.226 252.099 111.967 251.379 110.527C251.199 110.347 251.199 110.167 251.019 109.988C250.299 108.368 249.58 106.929 248.86 105.31C248.68 104.95 248.5 104.59 248.32 104.051C247.78 102.971 247.24 101.892 246.7 100.812C246.52 100.273 246.161 99.7329 245.981 99.1931C245.621 98.2936 245.081 97.2142 244.721 96.3146C244.541 95.7749 244.181 95.2352 244.001 94.6955C243.641 93.7959 243.101 92.8964 242.742 91.9969C242.562 91.4571 242.202 90.9174 242.022 90.3777C241.662 89.4781 241.122 88.3987 240.762 87.4992C240.582 87.1394 240.402 86.5996 240.222 86.2398C239.682 84.8006 239.143 83.5412 238.603 82.102C237.343 79.0435 236.443 76.165 235.364 73.1066C235.004 72.0272 234.644 70.9477 234.284 69.8683C233.744 68.0692 233.024 66.2701 232.485 64.4711C232.125 63.0318 231.585 61.7725 231.225 60.5131C230.865 59.0738 230.325 57.8145 229.965 56.3752C229.425 54.7561 229.066 53.1369 228.526 51.5177C228.346 50.6182 227.986 49.7187 227.806 48.8191C225.467 40.1836 223.487 32.4476 221.508 25.791C221.508 25.6111 221.508 25.4312 221.328 25.4312C216.649 9.9592 211.251 0.424115 199.014 0.0643005C197.575 0.0643005 196.135 0.0643012 194.696 0.244208C194.336 0.244208 193.976 0.424116 193.436 0.424116C192.356 0.604023 191.097 0.783929 189.837 0.963836C189.477 0.963836 189.117 1.14374 188.757 1.14374C187.498 1.32365 186.238 1.68347 184.799 2.04328C184.619 2.04328 184.259 2.22319 184.079 2.22319C168.603 6.18114 151.868 15.3564 141.251 22.013C141.071 22.1929 140.711 22.3728 140.531 22.5527C139.272 23.2723 138.192 23.992 137.112 24.7116C134.413 26.5107 133.514 29.9289 134.953 32.8074C137.832 38.7443 142.151 48.6392 143.591 55.6556C143.591 55.6556 143.591 55.8355 143.411 56.0154C142.691 57.4547 139.812 63.5715 132.614 70.7678C130.634 72.9267 128.115 75.0856 125.236 77.2445C125.056 77.4244 124.696 77.6043 124.516 77.7842C123.436 78.6837 122.177 79.5833 120.917 80.3029C120.557 80.6627 120.197 80.8426 119.658 81.2024C118.038 82.2819 116.419 83.3613 114.799 84.2608C101.843 91.9968 97.704 99.7329 96.6243 105.13C95.9045 108.548 97.884 111.787 101.303 112.686C101.663 112.866 102.023 112.866 102.383 113.046C102.922 113.226 103.462 113.406 104.182 113.586C104.362 113.586 104.542 113.766 104.722 113.766C106.701 114.485 108.861 115.385 111.02 116.464C111.56 116.644 111.92 117.004 112.46 117.184C112.82 117.364 113.179 117.724 113.719 117.903C114.259 118.263 114.799 118.623 115.339 118.983C115.699 119.343 116.059 119.523 116.419 119.882C116.958 120.422 117.498 120.782 118.038 121.322C118.398 121.682 118.758 121.861 118.938 122.221C119.478 122.761 120.017 123.481 120.557 124.02C120.737 124.38 121.097 124.56 121.277 124.92C121.997 125.999 122.537 126.899 123.257 128.158C127.395 136.794 118.578 136.614 110.84 134.995C108.681 134.635 107.421 137.333 109.221 138.593C114.439 142.011 121.817 145.609 129.015 145.429C143.051 145.069 138.552 123.481 133.334 120.602C128.115 117.724 118.938 118.263 114.259 111.427C109.76 104.59 122.357 92.1768 153.308 99.9128C153.308 99.9128 147.01 144.71 142.511 160.541C142.151 161.981 141.611 163.42 141.071 164.679C134.773 159.102 125.596 154.245 112.46 153.345C112.46 153.345 115.519 166.119 128.295 177.633C128.295 177.633 111.38 161.801 91.5858 175.654C91.5858 175.654 92.4855 176.553 93.9251 177.633C93.9251 177.633 93.9251 177.633 93.7452 177.633C93.7452 177.633 97.884 181.771 104.362 184.649C85.6475 181.95 55.9562 174.934 28.0644 157.843C26.8048 157.123 25.5451 156.404 24.4654 155.684C23.3858 155.144 22.486 154.605 21.5863 154.065C21.4063 154.065 21.4063 153.885 21.2264 153.885C19.067 152.805 17.0876 151.726 15.1082 151.006C14.3884 150.647 13.4887 150.467 12.7689 150.107H12.5889C10.4295 149.387 8.63007 149.027 7.01054 148.848C6.8306 148.848 6.8306 148.848 6.65065 148.848C6.29076 148.848 5.75091 148.848 5.39102 148.848C5.21107 148.848 5.03113 148.848 4.85118 148.848C4.49128 148.848 4.13139 149.027 3.77149 149.027C3.59155 149.027 3.4116 149.207 3.23165 149.207C2.69181 149.387 2.33191 149.747 1.97202 150.107C1.79207 150.287 1.61212 150.467 1.43218 150.647C1.25223 150.826 1.07228 151.186 1.07228 151.366C0.892336 151.546 0.712387 151.906 0.712387 152.266C0.53244 152.446 0.532439 152.805 0.532439 153.165C0.352492 153.525 0.352494 154.065 0.352494 154.425C0.352494 154.784 0.352494 154.964 0.172546 155.324C0.172546 156.044 0.172546 156.943 0.172546 157.843C0.172546 158.203 0.172546 158.383 0.172546 158.742C0.172546 159.462 0.352492 160.182 0.532439 161.081C0.532439 161.441 0.712387 161.801 0.712387 162.341C0.892334 163.24 1.07228 163.96 1.25223 165.039C1.43218 165.399 1.43218 165.759 1.61212 166.298C1.97202 167.738 2.33191 168.997 2.87176 170.616C9.16991 190.946 24.2855 213.254 67.4729 232.684C65.3135 232.504 63.3341 232.504 61.7145 232.864C61.5346 232.864 61.5346 232.864 61.3546 232.864C60.4549 233.044 59.7351 233.404 59.0153 233.944C58.6554 234.123 58.4755 234.303 58.2955 234.483C54.3367 238.981 81.8686 242.039 94.6449 243.299C97.3441 244.198 100.223 245.098 103.102 245.997C103.462 246.357 103.822 246.897 104.182 247.257C104.542 247.617 105.082 247.976 105.622 248.336C105.622 248.336 105.802 248.336 105.802 248.516C106.162 248.696 106.701 249.056 107.241 249.236L107.061 250.135L109.221 250.855L109.94 330.194L109.76 330.014C109.401 329.654 109.041 329.114 108.681 328.575C108.681 328.575 108.681 328.575 108.501 328.395C108.141 327.855 107.601 327.315 107.061 326.956C106.881 326.776 106.881 326.776 106.701 326.596C106.162 326.236 105.802 325.696 105.082 325.336C104.902 325.157 104.722 325.156 104.542 324.977C101.123 322.638 96.0845 321.019 88.8866 321.558C88.8866 321.558 98.0639 336.311 107.601 336.311L107.781 336.85C104.542 338.29 98.4238 341.528 97.5241 346.565C97.5241 346.565 104.182 346.565 108.861 339.549L109.041 340.089H109.221C108.321 343.687 107.421 350.344 111.2 357C111.2 357 117.318 349.264 113.179 339.369L113.539 337.57C116.778 338.47 124.696 339.909 129.015 333.972C129.015 333.972 122.897 327.495 114.259 334.692L114.079 334.512C115.879 332.173 120.017 326.416 120.017 320.839C120.017 320.839 113.179 325.336 111.92 331.813L110.12 251.035L111.92 250.675L111.74 249.775H111.92C112.1 249.775 112.28 249.775 112.46 249.775C116.239 251.215 120.197 252.294 124.156 252.834C124.336 253.014 124.696 253.194 124.876 253.374C125.056 253.553 125.416 253.733 125.596 253.913C126.136 254.273 126.855 254.633 127.755 255.173C127.935 255.353 128.295 255.532 128.475 255.532C129.015 255.892 129.555 256.072 130.095 256.432C130.274 256.612 130.634 256.792 130.814 256.792C132.794 257.871 134.953 259.131 137.292 260.57C137.472 260.75 137.652 260.75 138.012 260.93C140.531 262.369 143.411 263.988 146.65 265.607C146.83 265.607 146.83 265.787 147.01 265.787C150.249 267.406 153.848 269.205 157.626 271.004C157.626 271.004 157.806 271.004 157.806 271.184C161.585 272.983 165.724 274.962 170.043 276.762C175.801 279.28 181.919 281.799 188.397 284.138C188.577 284.138 188.757 284.318 188.937 284.318C193.616 286.117 198.295 287.736 203.333 289.355C203.693 289.535 204.053 289.535 204.413 289.715C209.091 291.154 213.95 292.593 218.809 293.853C219.348 294.033 220.068 294.212 220.608 294.392C223.847 295.292 227.086 296.012 230.505 296.731C234.464 297.631 238.243 298.35 242.202 298.89C241.662 291.154 240.942 282.339 245.261 282.159ZM320.659 199.042V198.862C320.659 198.682 320.659 198.502 320.659 198.322C322.278 198.682 323.898 198.862 325.517 199.221C324.078 199.401 322.638 199.761 321.199 199.761C321.019 199.761 320.839 199.761 320.659 199.761C320.659 199.581 320.659 199.401 320.659 199.042ZM289.888 163.6C290.788 162.341 291.687 161.081 292.767 159.822C292.767 161.261 292.947 164.859 291.507 168.997C291.327 168.997 291.147 168.997 290.967 168.997C290.248 168.817 289.528 168.817 288.808 168.637C289.348 167.198 289.708 165.579 289.888 163.6Z" fill="black"/>
</svg>
